# xmcd
#
# Track frame offsets:
#	150
#	14277
#	30709
#	44977
#	59762
#	70775
#	95475
#	112428
#	131322
#	146222
#	164976
#	176867
#	190686
#	204870
#
# Disc length: 3012 seconds
# Revision: 0
# Processed by: cddbd v1.5.2PL0 Copyright (c) Steve Scherf et al.
# Submitted via: dBpowerAMP V12.0
#
DISCID=df0bc20e
DTITLE=Puss n Boots - No Fools, No Fun (Amazon Bonus Tracks)
DYEAR=2014
DGENRE=Alt. Country
TTITLE0=Leaving London
TTITLE1=Bull Rider (Live)
TTITLE2=Twilight
TTITLE3=Sex Degrees of Separation
TTITLE4=Don't Know What It Means
TTITLE5=Down by the River (Live)
TTITLE6=Tarnished Angel (Live)
TTITLE7=Jesus, Etc.
TTITLE8=Always
TTITLE9=GTO
TTITLE10=Pines
TTITLE11=You'll Forget Me
TTITLE12=Cry, Cry, Cry
TTITLE13=In a Shanty in Old Shanty Town (Live)
EXTD=
EXTT0=
EXTT1=
EXTT2=
EXTT3=
EXTT4=
EXTT5=
EXTT6=
EXTT7=
EXTT8=
EXTT9=
EXTT10=
EXTT11=
EXTT12=
EXTT13=
PLAYORDER=
